<?xml version="1.0" standalone="no"?>
<!DOCTYPE svg PUBLIC "-//W3C//DTD SVG 20010904//EN"
 "http://www.w3.org/TR/2001/REC-SVG-20010904/DTD/svg10.dtd">
<svg version="1.0" xmlns="http://www.w3.org/2000/svg"
 width="512.000000pt" height="512.000000pt" viewBox="0 0 512.000000 512.000000"
 preserveAspectRatio="xMidYMid meet">

<g transform="translate(0.000000,512.000000) scale(0.100000,-0.100000)"
fill="#F5A064" stroke="none">
<path d="M4193 4865 c-34 -8 -95 -30 -135 -51 -67 -35 -126 -91 -768 -731
-651 -649 -698 -693 -730 -693 -32 0 -78 43 -715 678 -414 413 -701 691 -732
711 -121 75 -297 108 -435 82 -161 -31 -305 -144 -377 -294 -82 -172 -82 -323
1 -497 l40 -85 694 -695 c650 -651 694 -698 694 -730 0 -32 -43 -78 -678 -715
-413 -414 -691 -701 -711 -732 -75 -121 -108 -297 -82 -435 42 -219 233 -398
459 -430 118 -17 218 -1 331 53 l86 41 695 694 c651 650 698 694 730 694 32 0
78 -43 715 -678 414 -413 701 -691 732 -711 121 -75 297 -108 435 -82 154 30
297 137 371 278 87 167 89 337 5 513 l-40 85 -694 695 c-649 651 -694 698
-694 730 0 32 44 78 678 715 715 716 726 728 772 865 31 89 38 233 16 320 -25
99 -73 186 -142 255 -137 137 -328 192 -521 150z"/>
</g>
</svg>
